<svg xmlns="http://www.w3.org/2000/svg" width="24" height="24" viewBox="0 0 24 24" fill="none">
  <path d="M2 4H3.30575C4.28342 4 5.1178 4.70683 5.27853 5.6712L5.5 7M5.5 7L6.72147 14.3288C6.8822 15.2932 7.71658 16 8.69425 16H16.8057C17.7834 16 18.6178 15.2932 18.7785 14.3288L19.8059 8.1644C19.9075 7.55487 19.4375 7 18.8195 7H5.5Z" stroke="white" stroke-width="2" stroke-linecap="round" stroke-linejoin="round"/>
  <path d="M8.25 21.25C8.94036 21.25 9.5 20.6904 9.5 20C9.5 19.3096 8.94036 18.75 8.25 18.75C7.55964 18.75 7 19.3096 7 20C7 20.6904 7.55964 21.25 8.25 21.25ZM17.25 21.25C17.9404 21.25 18.5 20.6904 18.5 20C18.5 19.3096 17.9404 18.75 17.25 18.75C16.5596 18.75 16 19.3096 16 20C16 20.6904 16.5596 21.25 17.25 21.25Z" fill="white" stroke="white" stroke-width="0.5" stroke-linecap="round" stroke-linejoin="round"/>
</svg>