<svg width="32" height="32" viewBox="0 0 32 32" fill="none" xmlns="http://www.w3.org/2000/svg">
<path d="M32 10.4001L8.58933 20.3681C6.648 21.1894 5.01733 21.6014 3.69866 21.6014C2.20533 21.6014 1.12133 21.0787 0.449329 20.0321C0.0266626 19.3601 -0.0973374 18.5081 0.0759959 17.4747C0.249329 16.4414 0.710663 15.3414 1.45733 14.1707C2.08 13.2241 3.1 11.9801 4.52 10.4374C4.03835 11.1956 3.68516 12.0281 3.47466 12.9014C3.10133 14.4947 3.43733 15.6641 4.48266 16.4107C4.98 16.7587 5.664 16.9334 6.536 16.9334C7.232 16.9334 8.016 16.8214 8.888 16.5974L32 10.4001Z" fill="black"/>
</svg>
